
<?xml version="1.0" encoding="UTF-8"?>
<!DOCTYPE svg PUBLIC "-//W3C//DTD SVG 1.0//EN" "http://www.w3.org/TR/2001/REC-SVG-20010904/DTD/svg10.dtd">
<!-- Creator: CorelDRAW X8 -->
<svg xmlns="http://www.w3.org/2000/svg" xml:space="preserve" width="297mm" height="210mm" version="1.0" style="shape-rendering:geometricPrecision; text-rendering:geometricPrecision; image-rendering:optimizeQuality; fill-rule:evenodd; clip-rule:evenodd"
viewBox="0 0 29700 21000"
 xmlns:xlink="http://www.w3.org/1999/xlink">
 <defs>
  <style type="text/css">
   <![CDATA[
    .str0 {stroke:#2B2A29;stroke-width:20}
    .fil1 {fill:#FEFEFE}
    .fil0 {fill:#2B2A29}
    .fil2 {fill:#2B2A29;fill-rule:nonzero}
   ]]>
  </style>
 </defs>
 <g id="Слой_x0020_1">
  <metadata id="CorelCorpID_0Corel-Layer"/>
  <g id="_5558513456">
   <g>
    <path class="fil0" d="M11180 4194l2155 1787 410 -389 -2891 -2467c-476,879 -1367,1993 -2039,3096 -800,1312 -1660,2345 -2092,3189 1122,288 1797,636 4184,2471 1029,791 4269,3472 4571,4162l10 -2524 -1467 -27 -2978 -2401c541,90 2568,-130 4407,-1019l19 -2576c4,-480 -2818,-1094 -3070,-1105 -1174,-51 -2043,42 -2967,412l1748 -2609z"/>
    <path class="fil1" d="M11426 7407c374,-153 1205,509 1205,1292 0,784 -545,1570 -1133,1588 -589,17 -1028,-667 -1059,-1447 -30,-779 613,-1281 987,-1433z"/>
    <path class="fil0 str0" d="M10971 10100c57,68 125,83 208,129 274,154 844,-3 934,-244 -790,-818 -17,-1343 518,-1046 55,-195 13,-607 -248,-985 -591,78 -1738,567 -1412,2146z"/>
   </g>
   <path class="fil0" d="M19711 4193l-2155 1787 -411 -389 2892 -2467c476,879 1366,1993 2039,3096 800,1312 1660,2345 2092,3189 -1122,289 -1798,636 -4184,2471 -1030,791 -4204,3473 -4506,4163l-75 -2525 1467 -27 2977 -2401c-540,90 -2567,-130 -4407,-1019l-19 -2576c-3,-479 2818,-1094 3071,-1105 1174,-51 2043,42 2967,412l-1748 -2609z"/>
   <g>
    <path class="fil1" d="M18782 7366c374,-152 1205,509 1205,1293 0,784 -545,1570 -1134,1587 -588,18 -1028,-667 -1058,-1446 -31,-779 612,-1281 987,-1434z"/>
    <path class="fil0 str0" d="M18326 10060c58,67 126,83 208,129 274,154 844,-3 934,-244 -790,-819 -16,-1343 519,-1046 54,-195 12,-607 -249,-985 -590,78 -1738,567 -1412,2146z"/>
   </g>
  </g>
  <path class="fil2" d="M5800 15712l0 171c0,79 -37,119 -111,119l-1055 0c-48,0 -72,-26 -72,-79l0 -210c0,-27 23,-51 69,-72 83,-39 125,-107 125,-202l0 -5133c0,-107 -44,-170 -131,-189 -42,-9 -63,-37 -63,-88l0 -160c0,-44 7,-72 20,-86 12,-13 43,-20 91,-20l1016 0c74,0 111,35 111,107l0 2113c207,-217 427,-325 659,-325 271,0 500,150 686,451 185,302 279,899 279,1792 0,845 -94,1414 -280,1707 -188,293 -415,439 -682,439 -213,0 -433,-112 -662,-335zm464 -3062c0,-262 -70,-393 -211,-393 -75,0 -136,20 -182,57 -48,38 -71,83 -71,135l0 2832c0,48 21,89 64,123 43,33 95,50 155,50 77,0 137,-40 180,-118 43,-79 65,-174 65,-288l0 -2398zm3078 303l0 -610c0,-169 -68,-253 -206,-253 -189,0 -283,126 -283,381 0,144 -16,246 -49,306 -32,61 -105,114 -219,157 -114,43 -236,64 -365,64 -265,0 -399,-142 -399,-427 0,-269 116,-489 348,-659 232,-169 534,-254 908,-254 246,0 466,33 663,101 197,66 352,180 469,339 117,159 177,334 178,525l0 2872c4,15 35,46 92,94 42,32 62,78 62,139 0,85 -12,144 -34,178 -24,36 -80,67 -168,97 -89,29 -201,44 -335,44 -162,0 -298,-30 -407,-90 -110,-60 -193,-177 -255,-353 -182,189 -330,311 -443,364 -114,52 -230,79 -349,79 -267,0 -473,-104 -619,-313 -146,-208 -219,-550 -219,-1023 0,-474 69,-803 205,-985 136,-184 403,-354 799,-508 252,-97 461,-185 626,-265zm0 410c-238,104 -380,222 -426,352 -46,131 -70,425 -70,883 0,337 20,550 57,639 38,89 103,133 196,133 162,0 243,-134 243,-402l0 -1605z"/>
  <path class="fil2" d="M22326 10816c239,0 358,80 358,241 0,127 -80,234 -239,322 -159,87 -341,132 -544,132 -261,0 -392,-88 -392,-263 0,-140 92,-247 276,-320 182,-75 363,-112 541,-112zm-876 1218l0 -211c0,-70 42,-105 126,-105l1001 0c71,0 107,35 107,105l0 3646c0,51 3,83 10,97 5,15 23,29 55,42 73,30 110,96 110,196 0,117 -5,186 -15,210 -11,23 -44,35 -101,35l-1217 0c-29,-5 -49,-18 -56,-40 -9,-22 -13,-80 -13,-176 0,-114 26,-180 79,-200 64,-22 96,-65 96,-126l0 -3158c0,-122 -42,-197 -128,-222 -35,-10 -54,-41 -54,-93zm3128 886l199 -402c3,-4 13,-24 33,-58 83,-145 125,-245 125,-298 0,-30 -24,-58 -74,-86 -27,-16 -45,-33 -53,-55 -8,-20 -12,-80 -12,-176 0,-62 5,-97 16,-109 10,-12 42,-18 98,-18l612 0c31,5 50,16 56,34 7,18 10,67 10,148 0,92 -2,145 -8,160 -5,14 -28,31 -68,48 -49,23 -89,66 -120,129l-615 1274 668 1993c15,42 51,86 108,136 45,38 67,84 67,137l0 166c0,49 -5,79 -17,89 -12,11 -44,17 -99,17l-1137 0c-55,0 -92,-9 -109,-27 -18,-18 -27,-64 -27,-140 0,-84 5,-139 17,-167 11,-27 40,-53 86,-75 38,-18 56,-44 56,-77 0,-24 -5,-51 -15,-81l-225 -670 -222 414c-93,174 -139,285 -139,336 0,44 25,74 80,91 46,19 70,56 70,110l3 102c0,93 -4,147 -14,162 -10,14 -39,22 -88,22l-617 0c-40,0 -65,-6 -75,-17 -10,-9 -14,-40 -14,-88l0 -193c4,-31 27,-60 67,-85 74,-43 127,-97 159,-162l597 -1267 -651 -1941c-23,-72 -62,-128 -118,-169 -32,-24 -55,-47 -68,-67 -12,-18 -19,-97 -19,-237 0,-46 7,-75 20,-87 12,-12 41,-18 84,-18l1169 0c52,0 84,6 94,17 11,9 16,44 16,104l0 116c0,58 -19,100 -57,127 -51,36 -77,82 -77,137 0,12 2,25 7,38l221 663z"/>
 </g>
</svg>
